<mxfile host="Electron" modified="2025-01-02T09:06:39.016Z" agent="Mozilla/5.0 (Windows NT 10.0; Win64; x64) AppleWebKit/537.36 (KHTML, like Gecko) draw.io/24.4.8 Chrome/124.0.6367.207 Electron/30.0.6 Safari/537.36" etag="6Tpz6B6nQU4Yr8daoDox" version="24.4.8" type="device">
  <diagram name="第 1 页" id="WWGsrIUFNnhD5ro5LfyB">
    <mxGraphModel dx="4004" dy="2020" grid="1" gridSize="10" guides="1" tooltips="1" connect="1" arrows="1" fold="1" page="1" pageScale="1" pageWidth="3300" pageHeight="4681" math="0" shadow="0">
      <root>
        <mxCell id="0" />
        <mxCell id="1" parent="0" />
        <mxCell id="Gzjgc1qkwx82EHBpfoVX-1" value="" style="rounded=0;whiteSpace=wrap;html=1;" vertex="1" parent="1">
          <mxGeometry x="290" y="1300" width="380" height="490" as="geometry" />
        </mxCell>
        <mxCell id="Gzjgc1qkwx82EHBpfoVX-2" value="&lt;font style=&quot;font-size: 14px;&quot;&gt;P&lt;span style=&quot;background-color: initial;&quot;&gt;age&lt;/span&gt;&lt;/font&gt;" style="text;html=1;align=center;verticalAlign=middle;resizable=0;points=[];autosize=1;strokeColor=none;fillColor=none;" vertex="1" parent="1">
          <mxGeometry x="450" y="1270" width="60" height="30" as="geometry" />
        </mxCell>
        <mxCell id="Gzjgc1qkwx82EHBpfoVX-19" style="edgeStyle=orthogonalEdgeStyle;rounded=0;orthogonalLoop=1;jettySize=auto;html=1;exitX=0;exitY=0.5;exitDx=0;exitDy=0;" edge="1" parent="1" source="Gzjgc1qkwx82EHBpfoVX-3">
          <mxGeometry relative="1" as="geometry">
            <mxPoint x="190" y="1340" as="targetPoint" />
            <Array as="points">
              <mxPoint x="320" y="1340" />
              <mxPoint x="320" y="1340" />
            </Array>
          </mxGeometry>
        </mxCell>
        <mxCell id="Gzjgc1qkwx82EHBpfoVX-3" value="&lt;span style=&quot;font-size: 14px;&quot;&gt;page_prev&lt;/span&gt;" style="rounded=0;whiteSpace=wrap;html=1;" vertex="1" parent="1">
          <mxGeometry x="320" y="1320" width="130" height="40" as="geometry" />
        </mxCell>
        <mxCell id="Gzjgc1qkwx82EHBpfoVX-20" style="edgeStyle=orthogonalEdgeStyle;rounded=0;orthogonalLoop=1;jettySize=auto;html=1;exitX=1;exitY=0.5;exitDx=0;exitDy=0;entryX=0;entryY=0;entryDx=0;entryDy=0;" edge="1" parent="1" source="Gzjgc1qkwx82EHBpfoVX-5" target="Gzjgc1qkwx82EHBpfoVX-34">
          <mxGeometry relative="1" as="geometry">
            <mxPoint x="780" y="1339.842105263158" as="targetPoint" />
            <Array as="points">
              <mxPoint x="790" y="1340" />
              <mxPoint x="790" y="1280" />
              <mxPoint x="910" y="1280" />
            </Array>
          </mxGeometry>
        </mxCell>
        <mxCell id="Gzjgc1qkwx82EHBpfoVX-5" value="&lt;span style=&quot;font-size: 14px;&quot;&gt;page_next&lt;/span&gt;" style="rounded=0;whiteSpace=wrap;html=1;" vertex="1" parent="1">
          <mxGeometry x="510" y="1320" width="130" height="40" as="geometry" />
        </mxCell>
        <mxCell id="Gzjgc1qkwx82EHBpfoVX-6" value="" style="rounded=0;whiteSpace=wrap;html=1;" vertex="1" parent="1">
          <mxGeometry x="420" y="1400" width="230" height="360" as="geometry" />
        </mxCell>
        <mxCell id="Gzjgc1qkwx82EHBpfoVX-7" value="&lt;font style=&quot;font-size: 14px;&quot;&gt;数据记录&lt;/font&gt;" style="text;html=1;align=center;verticalAlign=middle;resizable=0;points=[];autosize=1;strokeColor=none;fillColor=none;" vertex="1" parent="1">
          <mxGeometry x="495" y="1370" width="80" height="30" as="geometry" />
        </mxCell>
        <mxCell id="Gzjgc1qkwx82EHBpfoVX-8" value="&lt;span style=&quot;font-size: 14px;&quot;&gt;1|xxx|xxx&lt;/span&gt;" style="rounded=0;whiteSpace=wrap;html=1;" vertex="1" parent="1">
          <mxGeometry x="430" y="1410" width="210" height="30" as="geometry" />
        </mxCell>
        <mxCell id="Gzjgc1qkwx82EHBpfoVX-15" style="edgeStyle=orthogonalEdgeStyle;rounded=0;orthogonalLoop=1;jettySize=auto;html=1;exitX=0.5;exitY=1;exitDx=0;exitDy=0;entryX=0.5;entryY=0;entryDx=0;entryDy=0;" edge="1" parent="1" source="Gzjgc1qkwx82EHBpfoVX-9" target="Gzjgc1qkwx82EHBpfoVX-10">
          <mxGeometry relative="1" as="geometry" />
        </mxCell>
        <mxCell id="Gzjgc1qkwx82EHBpfoVX-9" value="&lt;span style=&quot;font-size: 14px;&quot;&gt;2|xxx|xxx&lt;/span&gt;" style="rounded=0;whiteSpace=wrap;html=1;" vertex="1" parent="1">
          <mxGeometry x="430" y="1470" width="210" height="30" as="geometry" />
        </mxCell>
        <mxCell id="Gzjgc1qkwx82EHBpfoVX-16" style="edgeStyle=orthogonalEdgeStyle;rounded=0;orthogonalLoop=1;jettySize=auto;html=1;exitX=0.5;exitY=1;exitDx=0;exitDy=0;entryX=0.5;entryY=0;entryDx=0;entryDy=0;" edge="1" parent="1" source="Gzjgc1qkwx82EHBpfoVX-10" target="Gzjgc1qkwx82EHBpfoVX-11">
          <mxGeometry relative="1" as="geometry" />
        </mxCell>
        <mxCell id="Gzjgc1qkwx82EHBpfoVX-10" value="&lt;span style=&quot;font-size: 14px;&quot;&gt;3|xxx|xxx&lt;/span&gt;" style="rounded=0;whiteSpace=wrap;html=1;" vertex="1" parent="1">
          <mxGeometry x="430" y="1530" width="210" height="30" as="geometry" />
        </mxCell>
        <mxCell id="Gzjgc1qkwx82EHBpfoVX-17" style="edgeStyle=orthogonalEdgeStyle;rounded=0;orthogonalLoop=1;jettySize=auto;html=1;exitX=0.5;exitY=1;exitDx=0;exitDy=0;entryX=0.5;entryY=0;entryDx=0;entryDy=0;" edge="1" parent="1" source="Gzjgc1qkwx82EHBpfoVX-11" target="Gzjgc1qkwx82EHBpfoVX-12">
          <mxGeometry relative="1" as="geometry" />
        </mxCell>
        <mxCell id="Gzjgc1qkwx82EHBpfoVX-11" value="&lt;span style=&quot;font-size: 14px;&quot;&gt;4|xxx|xxx&lt;/span&gt;" style="rounded=0;whiteSpace=wrap;html=1;" vertex="1" parent="1">
          <mxGeometry x="430" y="1590" width="210" height="30" as="geometry" />
        </mxCell>
        <mxCell id="Gzjgc1qkwx82EHBpfoVX-18" style="edgeStyle=orthogonalEdgeStyle;rounded=0;orthogonalLoop=1;jettySize=auto;html=1;exitX=0.5;exitY=1;exitDx=0;exitDy=0;entryX=0.5;entryY=0;entryDx=0;entryDy=0;" edge="1" parent="1" source="Gzjgc1qkwx82EHBpfoVX-12" target="Gzjgc1qkwx82EHBpfoVX-13">
          <mxGeometry relative="1" as="geometry" />
        </mxCell>
        <mxCell id="Gzjgc1qkwx82EHBpfoVX-12" value="&lt;span style=&quot;font-size: 14px;&quot;&gt;5|xxx|xxx&lt;/span&gt;" style="rounded=0;whiteSpace=wrap;html=1;" vertex="1" parent="1">
          <mxGeometry x="430" y="1650" width="210" height="30" as="geometry" />
        </mxCell>
        <mxCell id="Gzjgc1qkwx82EHBpfoVX-13" value="&lt;span style=&quot;font-size: 14px;&quot;&gt;6|xxx|xxx&lt;/span&gt;" style="rounded=0;whiteSpace=wrap;html=1;" vertex="1" parent="1">
          <mxGeometry x="430" y="1710" width="210" height="30" as="geometry" />
        </mxCell>
        <mxCell id="Gzjgc1qkwx82EHBpfoVX-14" value="" style="endArrow=classic;html=1;rounded=0;exitX=0.5;exitY=1;exitDx=0;exitDy=0;entryX=0.5;entryY=0;entryDx=0;entryDy=0;" edge="1" parent="1" source="Gzjgc1qkwx82EHBpfoVX-8" target="Gzjgc1qkwx82EHBpfoVX-9">
          <mxGeometry width="50" height="50" relative="1" as="geometry">
            <mxPoint x="790" y="1700" as="sourcePoint" />
            <mxPoint x="840" y="1650" as="targetPoint" />
          </mxGeometry>
        </mxCell>
        <mxCell id="Gzjgc1qkwx82EHBpfoVX-21" value="&lt;font style=&quot;font-size: 14px;&quot;&gt;指向前一个page&lt;/font&gt;" style="text;html=1;align=center;verticalAlign=middle;resizable=0;points=[];autosize=1;strokeColor=none;fillColor=none;" vertex="1" parent="1">
          <mxGeometry x="180" y="1310" width="120" height="30" as="geometry" />
        </mxCell>
        <mxCell id="Gzjgc1qkwx82EHBpfoVX-22" value="&lt;span style=&quot;font-size: 14px;&quot;&gt;指向后一个page&lt;/span&gt;" style="text;html=1;align=center;verticalAlign=middle;resizable=0;points=[];autosize=1;strokeColor=none;fillColor=none;" vertex="1" parent="1">
          <mxGeometry x="680" y="1310" width="120" height="30" as="geometry" />
        </mxCell>
        <mxCell id="Gzjgc1qkwx82EHBpfoVX-28" value="" style="rounded=0;whiteSpace=wrap;html=1;" vertex="1" parent="1">
          <mxGeometry x="300" y="1400" width="90" height="270" as="geometry" />
        </mxCell>
        <mxCell id="Gzjgc1qkwx82EHBpfoVX-32" style="edgeStyle=orthogonalEdgeStyle;rounded=0;orthogonalLoop=1;jettySize=auto;html=1;exitX=1;exitY=0.5;exitDx=0;exitDy=0;entryX=0;entryY=0.5;entryDx=0;entryDy=0;" edge="1" parent="1" source="Gzjgc1qkwx82EHBpfoVX-30" target="Gzjgc1qkwx82EHBpfoVX-8">
          <mxGeometry relative="1" as="geometry" />
        </mxCell>
        <mxCell id="Gzjgc1qkwx82EHBpfoVX-30" value="目录1 [1]" style="rounded=0;whiteSpace=wrap;html=1;" vertex="1" parent="1">
          <mxGeometry x="305" y="1410" width="80" height="30" as="geometry" />
        </mxCell>
        <mxCell id="Gzjgc1qkwx82EHBpfoVX-33" style="edgeStyle=orthogonalEdgeStyle;rounded=0;orthogonalLoop=1;jettySize=auto;html=1;exitX=1;exitY=0.5;exitDx=0;exitDy=0;entryX=0;entryY=0.5;entryDx=0;entryDy=0;" edge="1" parent="1" source="Gzjgc1qkwx82EHBpfoVX-31" target="Gzjgc1qkwx82EHBpfoVX-11">
          <mxGeometry relative="1" as="geometry" />
        </mxCell>
        <mxCell id="Gzjgc1qkwx82EHBpfoVX-31" value="目录2 [4]" style="rounded=0;whiteSpace=wrap;html=1;" vertex="1" parent="1">
          <mxGeometry x="305" y="1460" width="80" height="30" as="geometry" />
        </mxCell>
        <mxCell id="Gzjgc1qkwx82EHBpfoVX-34" value="" style="rounded=0;whiteSpace=wrap;html=1;" vertex="1" parent="1">
          <mxGeometry x="910" y="1300" width="380" height="490" as="geometry" />
        </mxCell>
        <mxCell id="Gzjgc1qkwx82EHBpfoVX-35" value="&lt;font style=&quot;font-size: 14px;&quot;&gt;P&lt;span style=&quot;background-color: initial;&quot;&gt;age&lt;/span&gt;&lt;/font&gt;" style="text;html=1;align=center;verticalAlign=middle;resizable=0;points=[];autosize=1;strokeColor=none;fillColor=none;" vertex="1" parent="1">
          <mxGeometry x="1070" y="1270" width="60" height="30" as="geometry" />
        </mxCell>
        <mxCell id="Gzjgc1qkwx82EHBpfoVX-36" style="edgeStyle=orthogonalEdgeStyle;rounded=0;orthogonalLoop=1;jettySize=auto;html=1;exitX=0;exitY=0.5;exitDx=0;exitDy=0;entryX=1;entryY=0;entryDx=0;entryDy=0;" edge="1" parent="1" source="Gzjgc1qkwx82EHBpfoVX-37" target="Gzjgc1qkwx82EHBpfoVX-1">
          <mxGeometry relative="1" as="geometry">
            <mxPoint x="810" y="1340" as="targetPoint" />
            <Array as="points">
              <mxPoint x="800" y="1340" />
              <mxPoint x="800" y="1300" />
            </Array>
          </mxGeometry>
        </mxCell>
        <mxCell id="Gzjgc1qkwx82EHBpfoVX-37" value="&lt;span style=&quot;font-size: 14px;&quot;&gt;page_prev&lt;/span&gt;" style="rounded=0;whiteSpace=wrap;html=1;" vertex="1" parent="1">
          <mxGeometry x="940" y="1320" width="130" height="40" as="geometry" />
        </mxCell>
        <mxCell id="Gzjgc1qkwx82EHBpfoVX-38" style="edgeStyle=orthogonalEdgeStyle;rounded=0;orthogonalLoop=1;jettySize=auto;html=1;exitX=1;exitY=0.5;exitDx=0;exitDy=0;entryX=0;entryY=0;entryDx=0;entryDy=0;" edge="1" parent="1" source="Gzjgc1qkwx82EHBpfoVX-39" target="Gzjgc1qkwx82EHBpfoVX-60">
          <mxGeometry relative="1" as="geometry">
            <mxPoint x="1400" y="1339.842105263158" as="targetPoint" />
            <Array as="points">
              <mxPoint x="1410" y="1340" />
              <mxPoint x="1410" y="1280" />
              <mxPoint x="1520" y="1280" />
            </Array>
          </mxGeometry>
        </mxCell>
        <mxCell id="Gzjgc1qkwx82EHBpfoVX-39" value="&lt;span style=&quot;font-size: 14px;&quot;&gt;page_next&lt;/span&gt;" style="rounded=0;whiteSpace=wrap;html=1;" vertex="1" parent="1">
          <mxGeometry x="1130" y="1320" width="130" height="40" as="geometry" />
        </mxCell>
        <mxCell id="Gzjgc1qkwx82EHBpfoVX-40" value="" style="rounded=0;whiteSpace=wrap;html=1;" vertex="1" parent="1">
          <mxGeometry x="1040" y="1400" width="230" height="360" as="geometry" />
        </mxCell>
        <mxCell id="Gzjgc1qkwx82EHBpfoVX-41" value="&lt;font style=&quot;font-size: 14px;&quot;&gt;数据记录&lt;/font&gt;" style="text;html=1;align=center;verticalAlign=middle;resizable=0;points=[];autosize=1;strokeColor=none;fillColor=none;" vertex="1" parent="1">
          <mxGeometry x="1115" y="1370" width="80" height="30" as="geometry" />
        </mxCell>
        <mxCell id="Gzjgc1qkwx82EHBpfoVX-42" value="&lt;span style=&quot;font-size: 14px;&quot;&gt;7|xxx|xxx&lt;/span&gt;" style="rounded=0;whiteSpace=wrap;html=1;" vertex="1" parent="1">
          <mxGeometry x="1050" y="1410" width="210" height="30" as="geometry" />
        </mxCell>
        <mxCell id="Gzjgc1qkwx82EHBpfoVX-43" style="edgeStyle=orthogonalEdgeStyle;rounded=0;orthogonalLoop=1;jettySize=auto;html=1;exitX=0.5;exitY=1;exitDx=0;exitDy=0;entryX=0.5;entryY=0;entryDx=0;entryDy=0;" edge="1" parent="1" source="Gzjgc1qkwx82EHBpfoVX-44" target="Gzjgc1qkwx82EHBpfoVX-46">
          <mxGeometry relative="1" as="geometry" />
        </mxCell>
        <mxCell id="Gzjgc1qkwx82EHBpfoVX-44" value="&lt;span style=&quot;font-size: 14px;&quot;&gt;8|xxx|xxx&lt;/span&gt;" style="rounded=0;whiteSpace=wrap;html=1;" vertex="1" parent="1">
          <mxGeometry x="1050" y="1470" width="210" height="30" as="geometry" />
        </mxCell>
        <mxCell id="Gzjgc1qkwx82EHBpfoVX-45" style="edgeStyle=orthogonalEdgeStyle;rounded=0;orthogonalLoop=1;jettySize=auto;html=1;exitX=0.5;exitY=1;exitDx=0;exitDy=0;entryX=0.5;entryY=0;entryDx=0;entryDy=0;" edge="1" parent="1" source="Gzjgc1qkwx82EHBpfoVX-46" target="Gzjgc1qkwx82EHBpfoVX-48">
          <mxGeometry relative="1" as="geometry" />
        </mxCell>
        <mxCell id="Gzjgc1qkwx82EHBpfoVX-46" value="&lt;span style=&quot;font-size: 14px;&quot;&gt;9|xxx|xxx&lt;/span&gt;" style="rounded=0;whiteSpace=wrap;html=1;" vertex="1" parent="1">
          <mxGeometry x="1050" y="1530" width="210" height="30" as="geometry" />
        </mxCell>
        <mxCell id="Gzjgc1qkwx82EHBpfoVX-47" style="edgeStyle=orthogonalEdgeStyle;rounded=0;orthogonalLoop=1;jettySize=auto;html=1;exitX=0.5;exitY=1;exitDx=0;exitDy=0;entryX=0.5;entryY=0;entryDx=0;entryDy=0;" edge="1" parent="1" source="Gzjgc1qkwx82EHBpfoVX-48" target="Gzjgc1qkwx82EHBpfoVX-50">
          <mxGeometry relative="1" as="geometry" />
        </mxCell>
        <mxCell id="Gzjgc1qkwx82EHBpfoVX-48" value="&lt;span style=&quot;font-size: 14px;&quot;&gt;10|xxx|xxx&lt;/span&gt;" style="rounded=0;whiteSpace=wrap;html=1;" vertex="1" parent="1">
          <mxGeometry x="1050" y="1590" width="210" height="30" as="geometry" />
        </mxCell>
        <mxCell id="Gzjgc1qkwx82EHBpfoVX-49" style="edgeStyle=orthogonalEdgeStyle;rounded=0;orthogonalLoop=1;jettySize=auto;html=1;exitX=0.5;exitY=1;exitDx=0;exitDy=0;entryX=0.5;entryY=0;entryDx=0;entryDy=0;" edge="1" parent="1" source="Gzjgc1qkwx82EHBpfoVX-50" target="Gzjgc1qkwx82EHBpfoVX-51">
          <mxGeometry relative="1" as="geometry" />
        </mxCell>
        <mxCell id="Gzjgc1qkwx82EHBpfoVX-50" value="&lt;span style=&quot;font-size: 14px;&quot;&gt;11|xxx|xxx&lt;/span&gt;" style="rounded=0;whiteSpace=wrap;html=1;" vertex="1" parent="1">
          <mxGeometry x="1050" y="1650" width="210" height="30" as="geometry" />
        </mxCell>
        <mxCell id="Gzjgc1qkwx82EHBpfoVX-51" value="&lt;span style=&quot;font-size: 14px;&quot;&gt;12 |xxx|xxx&lt;/span&gt;" style="rounded=0;whiteSpace=wrap;html=1;" vertex="1" parent="1">
          <mxGeometry x="1050" y="1710" width="210" height="30" as="geometry" />
        </mxCell>
        <mxCell id="Gzjgc1qkwx82EHBpfoVX-52" value="" style="endArrow=classic;html=1;rounded=0;exitX=0.5;exitY=1;exitDx=0;exitDy=0;entryX=0.5;entryY=0;entryDx=0;entryDy=0;" edge="1" parent="1" source="Gzjgc1qkwx82EHBpfoVX-42" target="Gzjgc1qkwx82EHBpfoVX-44">
          <mxGeometry width="50" height="50" relative="1" as="geometry">
            <mxPoint x="1410" y="1700" as="sourcePoint" />
            <mxPoint x="1460" y="1650" as="targetPoint" />
          </mxGeometry>
        </mxCell>
        <mxCell id="Gzjgc1qkwx82EHBpfoVX-53" value="&lt;font style=&quot;font-size: 14px;&quot;&gt;指向前一个page&lt;/font&gt;" style="text;html=1;align=center;verticalAlign=middle;resizable=0;points=[];autosize=1;strokeColor=none;fillColor=none;" vertex="1" parent="1">
          <mxGeometry x="800" y="1310" width="120" height="30" as="geometry" />
        </mxCell>
        <mxCell id="Gzjgc1qkwx82EHBpfoVX-54" value="&lt;span style=&quot;font-size: 14px;&quot;&gt;指向后一个page&lt;/span&gt;" style="text;html=1;align=center;verticalAlign=middle;resizable=0;points=[];autosize=1;strokeColor=none;fillColor=none;" vertex="1" parent="1">
          <mxGeometry x="1300" y="1310" width="120" height="30" as="geometry" />
        </mxCell>
        <mxCell id="Gzjgc1qkwx82EHBpfoVX-55" value="" style="rounded=0;whiteSpace=wrap;html=1;" vertex="1" parent="1">
          <mxGeometry x="920" y="1400" width="90" height="270" as="geometry" />
        </mxCell>
        <mxCell id="Gzjgc1qkwx82EHBpfoVX-56" style="edgeStyle=orthogonalEdgeStyle;rounded=0;orthogonalLoop=1;jettySize=auto;html=1;exitX=1;exitY=0.5;exitDx=0;exitDy=0;entryX=0;entryY=0.5;entryDx=0;entryDy=0;" edge="1" parent="1" source="Gzjgc1qkwx82EHBpfoVX-57" target="Gzjgc1qkwx82EHBpfoVX-42">
          <mxGeometry relative="1" as="geometry" />
        </mxCell>
        <mxCell id="Gzjgc1qkwx82EHBpfoVX-57" value="目录1 [7]" style="rounded=0;whiteSpace=wrap;html=1;" vertex="1" parent="1">
          <mxGeometry x="925" y="1410" width="80" height="30" as="geometry" />
        </mxCell>
        <mxCell id="Gzjgc1qkwx82EHBpfoVX-58" style="edgeStyle=orthogonalEdgeStyle;rounded=0;orthogonalLoop=1;jettySize=auto;html=1;exitX=1;exitY=0.5;exitDx=0;exitDy=0;entryX=0;entryY=0.5;entryDx=0;entryDy=0;" edge="1" parent="1" source="Gzjgc1qkwx82EHBpfoVX-59" target="Gzjgc1qkwx82EHBpfoVX-48">
          <mxGeometry relative="1" as="geometry" />
        </mxCell>
        <mxCell id="Gzjgc1qkwx82EHBpfoVX-59" value="目录2 [10]" style="rounded=0;whiteSpace=wrap;html=1;" vertex="1" parent="1">
          <mxGeometry x="925" y="1460" width="80" height="30" as="geometry" />
        </mxCell>
        <mxCell id="Gzjgc1qkwx82EHBpfoVX-60" value="" style="rounded=0;whiteSpace=wrap;html=1;" vertex="1" parent="1">
          <mxGeometry x="1520" y="1300" width="380" height="490" as="geometry" />
        </mxCell>
        <mxCell id="Gzjgc1qkwx82EHBpfoVX-61" value="&lt;font style=&quot;font-size: 14px;&quot;&gt;P&lt;span style=&quot;background-color: initial;&quot;&gt;age&lt;/span&gt;&lt;/font&gt;" style="text;html=1;align=center;verticalAlign=middle;resizable=0;points=[];autosize=1;strokeColor=none;fillColor=none;" vertex="1" parent="1">
          <mxGeometry x="1680" y="1270" width="60" height="30" as="geometry" />
        </mxCell>
        <mxCell id="Gzjgc1qkwx82EHBpfoVX-62" style="edgeStyle=orthogonalEdgeStyle;rounded=0;orthogonalLoop=1;jettySize=auto;html=1;exitX=0;exitY=0.5;exitDx=0;exitDy=0;entryX=1;entryY=0;entryDx=0;entryDy=0;" edge="1" parent="1" source="Gzjgc1qkwx82EHBpfoVX-63" target="Gzjgc1qkwx82EHBpfoVX-34">
          <mxGeometry relative="1" as="geometry">
            <mxPoint x="1420" y="1340" as="targetPoint" />
            <Array as="points">
              <mxPoint x="1430" y="1340" />
              <mxPoint x="1430" y="1300" />
            </Array>
          </mxGeometry>
        </mxCell>
        <mxCell id="Gzjgc1qkwx82EHBpfoVX-63" value="&lt;span style=&quot;font-size: 14px;&quot;&gt;page_prev&lt;/span&gt;" style="rounded=0;whiteSpace=wrap;html=1;" vertex="1" parent="1">
          <mxGeometry x="1550" y="1320" width="130" height="40" as="geometry" />
        </mxCell>
        <mxCell id="Gzjgc1qkwx82EHBpfoVX-135" style="edgeStyle=orthogonalEdgeStyle;rounded=0;orthogonalLoop=1;jettySize=auto;html=1;exitX=1;exitY=0.5;exitDx=0;exitDy=0;entryX=0;entryY=0;entryDx=0;entryDy=0;" edge="1" parent="1" source="Gzjgc1qkwx82EHBpfoVX-65" target="Gzjgc1qkwx82EHBpfoVX-109">
          <mxGeometry relative="1" as="geometry" />
        </mxCell>
        <mxCell id="Gzjgc1qkwx82EHBpfoVX-65" value="&lt;span style=&quot;font-size: 14px;&quot;&gt;page_next&lt;/span&gt;" style="rounded=0;whiteSpace=wrap;html=1;" vertex="1" parent="1">
          <mxGeometry x="1740" y="1320" width="130" height="40" as="geometry" />
        </mxCell>
        <mxCell id="Gzjgc1qkwx82EHBpfoVX-66" value="" style="rounded=0;whiteSpace=wrap;html=1;" vertex="1" parent="1">
          <mxGeometry x="1650" y="1400" width="230" height="360" as="geometry" />
        </mxCell>
        <mxCell id="Gzjgc1qkwx82EHBpfoVX-67" value="&lt;font style=&quot;font-size: 14px;&quot;&gt;数据记录&lt;/font&gt;" style="text;html=1;align=center;verticalAlign=middle;resizable=0;points=[];autosize=1;strokeColor=none;fillColor=none;" vertex="1" parent="1">
          <mxGeometry x="1725" y="1370" width="80" height="30" as="geometry" />
        </mxCell>
        <mxCell id="Gzjgc1qkwx82EHBpfoVX-68" value="&lt;span style=&quot;font-size: 14px;&quot;&gt;13|xxx|xxx&lt;/span&gt;" style="rounded=0;whiteSpace=wrap;html=1;" vertex="1" parent="1">
          <mxGeometry x="1660" y="1410" width="210" height="30" as="geometry" />
        </mxCell>
        <mxCell id="Gzjgc1qkwx82EHBpfoVX-69" style="edgeStyle=orthogonalEdgeStyle;rounded=0;orthogonalLoop=1;jettySize=auto;html=1;exitX=0.5;exitY=1;exitDx=0;exitDy=0;entryX=0.5;entryY=0;entryDx=0;entryDy=0;" edge="1" parent="1" source="Gzjgc1qkwx82EHBpfoVX-70" target="Gzjgc1qkwx82EHBpfoVX-72">
          <mxGeometry relative="1" as="geometry" />
        </mxCell>
        <mxCell id="Gzjgc1qkwx82EHBpfoVX-70" value="&lt;span style=&quot;font-size: 14px;&quot;&gt;14|xxx|xxx&lt;/span&gt;" style="rounded=0;whiteSpace=wrap;html=1;" vertex="1" parent="1">
          <mxGeometry x="1660" y="1470" width="210" height="30" as="geometry" />
        </mxCell>
        <mxCell id="Gzjgc1qkwx82EHBpfoVX-71" style="edgeStyle=orthogonalEdgeStyle;rounded=0;orthogonalLoop=1;jettySize=auto;html=1;exitX=0.5;exitY=1;exitDx=0;exitDy=0;entryX=0.5;entryY=0;entryDx=0;entryDy=0;" edge="1" parent="1" source="Gzjgc1qkwx82EHBpfoVX-72" target="Gzjgc1qkwx82EHBpfoVX-74">
          <mxGeometry relative="1" as="geometry" />
        </mxCell>
        <mxCell id="Gzjgc1qkwx82EHBpfoVX-72" value="&lt;span style=&quot;font-size: 14px;&quot;&gt;15|xxx|xxx&lt;/span&gt;" style="rounded=0;whiteSpace=wrap;html=1;" vertex="1" parent="1">
          <mxGeometry x="1660" y="1530" width="210" height="30" as="geometry" />
        </mxCell>
        <mxCell id="Gzjgc1qkwx82EHBpfoVX-73" style="edgeStyle=orthogonalEdgeStyle;rounded=0;orthogonalLoop=1;jettySize=auto;html=1;exitX=0.5;exitY=1;exitDx=0;exitDy=0;entryX=0.5;entryY=0;entryDx=0;entryDy=0;" edge="1" parent="1" source="Gzjgc1qkwx82EHBpfoVX-74" target="Gzjgc1qkwx82EHBpfoVX-76">
          <mxGeometry relative="1" as="geometry" />
        </mxCell>
        <mxCell id="Gzjgc1qkwx82EHBpfoVX-74" value="&lt;span style=&quot;font-size: 14px;&quot;&gt;16|xxx|xxx&lt;/span&gt;" style="rounded=0;whiteSpace=wrap;html=1;" vertex="1" parent="1">
          <mxGeometry x="1660" y="1590" width="210" height="30" as="geometry" />
        </mxCell>
        <mxCell id="Gzjgc1qkwx82EHBpfoVX-75" style="edgeStyle=orthogonalEdgeStyle;rounded=0;orthogonalLoop=1;jettySize=auto;html=1;exitX=0.5;exitY=1;exitDx=0;exitDy=0;entryX=0.5;entryY=0;entryDx=0;entryDy=0;" edge="1" parent="1" source="Gzjgc1qkwx82EHBpfoVX-76" target="Gzjgc1qkwx82EHBpfoVX-77">
          <mxGeometry relative="1" as="geometry" />
        </mxCell>
        <mxCell id="Gzjgc1qkwx82EHBpfoVX-76" value="&lt;span style=&quot;font-size: 14px;&quot;&gt;17|xxx|xxx&lt;/span&gt;" style="rounded=0;whiteSpace=wrap;html=1;" vertex="1" parent="1">
          <mxGeometry x="1660" y="1650" width="210" height="30" as="geometry" />
        </mxCell>
        <mxCell id="Gzjgc1qkwx82EHBpfoVX-77" value="&lt;span style=&quot;font-size: 14px;&quot;&gt;18 |xxx|xxx&lt;/span&gt;" style="rounded=0;whiteSpace=wrap;html=1;" vertex="1" parent="1">
          <mxGeometry x="1660" y="1710" width="210" height="30" as="geometry" />
        </mxCell>
        <mxCell id="Gzjgc1qkwx82EHBpfoVX-78" value="" style="endArrow=classic;html=1;rounded=0;exitX=0.5;exitY=1;exitDx=0;exitDy=0;entryX=0.5;entryY=0;entryDx=0;entryDy=0;" edge="1" parent="1" source="Gzjgc1qkwx82EHBpfoVX-68" target="Gzjgc1qkwx82EHBpfoVX-70">
          <mxGeometry width="50" height="50" relative="1" as="geometry">
            <mxPoint x="2020" y="1700" as="sourcePoint" />
            <mxPoint x="2070" y="1650" as="targetPoint" />
          </mxGeometry>
        </mxCell>
        <mxCell id="Gzjgc1qkwx82EHBpfoVX-79" value="&lt;font style=&quot;font-size: 14px;&quot;&gt;指向前一个page&lt;/font&gt;" style="text;html=1;align=center;verticalAlign=middle;resizable=0;points=[];autosize=1;strokeColor=none;fillColor=none;" vertex="1" parent="1">
          <mxGeometry x="1430" y="1310" width="120" height="30" as="geometry" />
        </mxCell>
        <mxCell id="Gzjgc1qkwx82EHBpfoVX-81" value="" style="rounded=0;whiteSpace=wrap;html=1;" vertex="1" parent="1">
          <mxGeometry x="1530" y="1400" width="90" height="270" as="geometry" />
        </mxCell>
        <mxCell id="Gzjgc1qkwx82EHBpfoVX-82" style="edgeStyle=orthogonalEdgeStyle;rounded=0;orthogonalLoop=1;jettySize=auto;html=1;exitX=1;exitY=0.5;exitDx=0;exitDy=0;entryX=0;entryY=0.5;entryDx=0;entryDy=0;" edge="1" parent="1" source="Gzjgc1qkwx82EHBpfoVX-83" target="Gzjgc1qkwx82EHBpfoVX-68">
          <mxGeometry relative="1" as="geometry" />
        </mxCell>
        <mxCell id="Gzjgc1qkwx82EHBpfoVX-83" value="目录1 [13]" style="rounded=0;whiteSpace=wrap;html=1;" vertex="1" parent="1">
          <mxGeometry x="1535" y="1410" width="80" height="30" as="geometry" />
        </mxCell>
        <mxCell id="Gzjgc1qkwx82EHBpfoVX-84" style="edgeStyle=orthogonalEdgeStyle;rounded=0;orthogonalLoop=1;jettySize=auto;html=1;exitX=1;exitY=0.5;exitDx=0;exitDy=0;entryX=0;entryY=0.5;entryDx=0;entryDy=0;" edge="1" parent="1" source="Gzjgc1qkwx82EHBpfoVX-85" target="Gzjgc1qkwx82EHBpfoVX-74">
          <mxGeometry relative="1" as="geometry" />
        </mxCell>
        <mxCell id="Gzjgc1qkwx82EHBpfoVX-85" value="目录2 [16 ]" style="rounded=0;whiteSpace=wrap;html=1;" vertex="1" parent="1">
          <mxGeometry x="1535" y="1460" width="80" height="30" as="geometry" />
        </mxCell>
        <mxCell id="Gzjgc1qkwx82EHBpfoVX-109" value="" style="rounded=0;whiteSpace=wrap;html=1;" vertex="1" parent="1">
          <mxGeometry x="2100" y="1300" width="380" height="490" as="geometry" />
        </mxCell>
        <mxCell id="Gzjgc1qkwx82EHBpfoVX-110" value="&lt;font style=&quot;font-size: 14px;&quot;&gt;P&lt;span style=&quot;background-color: initial;&quot;&gt;age&lt;/span&gt;&lt;/font&gt;" style="text;html=1;align=center;verticalAlign=middle;resizable=0;points=[];autosize=1;strokeColor=none;fillColor=none;" vertex="1" parent="1">
          <mxGeometry x="2260" y="1270" width="60" height="30" as="geometry" />
        </mxCell>
        <mxCell id="Gzjgc1qkwx82EHBpfoVX-136" style="edgeStyle=orthogonalEdgeStyle;rounded=0;orthogonalLoop=1;jettySize=auto;html=1;exitX=0;exitY=0.5;exitDx=0;exitDy=0;entryX=1;entryY=0;entryDx=0;entryDy=0;" edge="1" parent="1" source="Gzjgc1qkwx82EHBpfoVX-112" target="Gzjgc1qkwx82EHBpfoVX-60">
          <mxGeometry relative="1" as="geometry">
            <Array as="points">
              <mxPoint x="2005" y="1340" />
              <mxPoint x="2005" y="1300" />
            </Array>
          </mxGeometry>
        </mxCell>
        <mxCell id="Gzjgc1qkwx82EHBpfoVX-112" value="&lt;span style=&quot;font-size: 14px;&quot;&gt;page_prev&lt;/span&gt;" style="rounded=0;whiteSpace=wrap;html=1;" vertex="1" parent="1">
          <mxGeometry x="2130" y="1320" width="130" height="40" as="geometry" />
        </mxCell>
        <mxCell id="Gzjgc1qkwx82EHBpfoVX-113" style="edgeStyle=orthogonalEdgeStyle;rounded=0;orthogonalLoop=1;jettySize=auto;html=1;exitX=1;exitY=0.5;exitDx=0;exitDy=0;" edge="1" parent="1" source="Gzjgc1qkwx82EHBpfoVX-114">
          <mxGeometry relative="1" as="geometry">
            <mxPoint x="2560" y="1339.842105263158" as="targetPoint" />
          </mxGeometry>
        </mxCell>
        <mxCell id="Gzjgc1qkwx82EHBpfoVX-114" value="&lt;span style=&quot;font-size: 14px;&quot;&gt;page_next&lt;/span&gt;" style="rounded=0;whiteSpace=wrap;html=1;" vertex="1" parent="1">
          <mxGeometry x="2320" y="1320" width="130" height="40" as="geometry" />
        </mxCell>
        <mxCell id="Gzjgc1qkwx82EHBpfoVX-115" value="" style="rounded=0;whiteSpace=wrap;html=1;" vertex="1" parent="1">
          <mxGeometry x="2230" y="1400" width="230" height="360" as="geometry" />
        </mxCell>
        <mxCell id="Gzjgc1qkwx82EHBpfoVX-116" value="&lt;font style=&quot;font-size: 14px;&quot;&gt;数据记录&lt;/font&gt;" style="text;html=1;align=center;verticalAlign=middle;resizable=0;points=[];autosize=1;strokeColor=none;fillColor=none;" vertex="1" parent="1">
          <mxGeometry x="2305" y="1370" width="80" height="30" as="geometry" />
        </mxCell>
        <mxCell id="Gzjgc1qkwx82EHBpfoVX-117" value="&lt;span style=&quot;font-size: 14px;&quot;&gt;19|xxx|xxx&lt;/span&gt;" style="rounded=0;whiteSpace=wrap;html=1;" vertex="1" parent="1">
          <mxGeometry x="2240" y="1410" width="210" height="30" as="geometry" />
        </mxCell>
        <mxCell id="Gzjgc1qkwx82EHBpfoVX-118" style="edgeStyle=orthogonalEdgeStyle;rounded=0;orthogonalLoop=1;jettySize=auto;html=1;exitX=0.5;exitY=1;exitDx=0;exitDy=0;entryX=0.5;entryY=0;entryDx=0;entryDy=0;" edge="1" parent="1" source="Gzjgc1qkwx82EHBpfoVX-119" target="Gzjgc1qkwx82EHBpfoVX-121">
          <mxGeometry relative="1" as="geometry" />
        </mxCell>
        <mxCell id="Gzjgc1qkwx82EHBpfoVX-119" value="&lt;span style=&quot;font-size: 14px;&quot;&gt;20|xxx|xxx&lt;/span&gt;" style="rounded=0;whiteSpace=wrap;html=1;" vertex="1" parent="1">
          <mxGeometry x="2240" y="1470" width="210" height="30" as="geometry" />
        </mxCell>
        <mxCell id="Gzjgc1qkwx82EHBpfoVX-120" style="edgeStyle=orthogonalEdgeStyle;rounded=0;orthogonalLoop=1;jettySize=auto;html=1;exitX=0.5;exitY=1;exitDx=0;exitDy=0;entryX=0.5;entryY=0;entryDx=0;entryDy=0;" edge="1" parent="1" source="Gzjgc1qkwx82EHBpfoVX-121" target="Gzjgc1qkwx82EHBpfoVX-123">
          <mxGeometry relative="1" as="geometry" />
        </mxCell>
        <mxCell id="Gzjgc1qkwx82EHBpfoVX-121" value="&lt;span style=&quot;font-size: 14px;&quot;&gt;21|xxx|xxx&lt;/span&gt;" style="rounded=0;whiteSpace=wrap;html=1;" vertex="1" parent="1">
          <mxGeometry x="2240" y="1530" width="210" height="30" as="geometry" />
        </mxCell>
        <mxCell id="Gzjgc1qkwx82EHBpfoVX-122" style="edgeStyle=orthogonalEdgeStyle;rounded=0;orthogonalLoop=1;jettySize=auto;html=1;exitX=0.5;exitY=1;exitDx=0;exitDy=0;entryX=0.5;entryY=0;entryDx=0;entryDy=0;" edge="1" parent="1" source="Gzjgc1qkwx82EHBpfoVX-123" target="Gzjgc1qkwx82EHBpfoVX-125">
          <mxGeometry relative="1" as="geometry" />
        </mxCell>
        <mxCell id="Gzjgc1qkwx82EHBpfoVX-123" value="&lt;span style=&quot;font-size: 14px;&quot;&gt;22|xxx|xxx&lt;/span&gt;" style="rounded=0;whiteSpace=wrap;html=1;" vertex="1" parent="1">
          <mxGeometry x="2240" y="1590" width="210" height="30" as="geometry" />
        </mxCell>
        <mxCell id="Gzjgc1qkwx82EHBpfoVX-124" style="edgeStyle=orthogonalEdgeStyle;rounded=0;orthogonalLoop=1;jettySize=auto;html=1;exitX=0.5;exitY=1;exitDx=0;exitDy=0;entryX=0.5;entryY=0;entryDx=0;entryDy=0;" edge="1" parent="1" source="Gzjgc1qkwx82EHBpfoVX-125" target="Gzjgc1qkwx82EHBpfoVX-126">
          <mxGeometry relative="1" as="geometry" />
        </mxCell>
        <mxCell id="Gzjgc1qkwx82EHBpfoVX-125" value="&lt;span style=&quot;font-size: 14px;&quot;&gt;23|xxx|xxx&lt;/span&gt;" style="rounded=0;whiteSpace=wrap;html=1;" vertex="1" parent="1">
          <mxGeometry x="2240" y="1650" width="210" height="30" as="geometry" />
        </mxCell>
        <mxCell id="Gzjgc1qkwx82EHBpfoVX-126" value="&lt;span style=&quot;font-size: 14px;&quot;&gt;24|xxx|xxx&lt;/span&gt;" style="rounded=0;whiteSpace=wrap;html=1;" vertex="1" parent="1">
          <mxGeometry x="2240" y="1710" width="210" height="30" as="geometry" />
        </mxCell>
        <mxCell id="Gzjgc1qkwx82EHBpfoVX-127" value="" style="endArrow=classic;html=1;rounded=0;exitX=0.5;exitY=1;exitDx=0;exitDy=0;entryX=0.5;entryY=0;entryDx=0;entryDy=0;" edge="1" parent="1" source="Gzjgc1qkwx82EHBpfoVX-117" target="Gzjgc1qkwx82EHBpfoVX-119">
          <mxGeometry width="50" height="50" relative="1" as="geometry">
            <mxPoint x="2600" y="1700" as="sourcePoint" />
            <mxPoint x="2650" y="1650" as="targetPoint" />
          </mxGeometry>
        </mxCell>
        <mxCell id="Gzjgc1qkwx82EHBpfoVX-128" value="&lt;font style=&quot;font-size: 14px;&quot;&gt;指向前一个page&lt;/font&gt;" style="text;html=1;align=center;verticalAlign=middle;resizable=0;points=[];autosize=1;strokeColor=none;fillColor=none;" vertex="1" parent="1">
          <mxGeometry x="2000" y="1310" width="120" height="30" as="geometry" />
        </mxCell>
        <mxCell id="Gzjgc1qkwx82EHBpfoVX-129" value="" style="rounded=0;whiteSpace=wrap;html=1;" vertex="1" parent="1">
          <mxGeometry x="2110" y="1400" width="90" height="270" as="geometry" />
        </mxCell>
        <mxCell id="Gzjgc1qkwx82EHBpfoVX-130" style="edgeStyle=orthogonalEdgeStyle;rounded=0;orthogonalLoop=1;jettySize=auto;html=1;exitX=1;exitY=0.5;exitDx=0;exitDy=0;entryX=0;entryY=0.5;entryDx=0;entryDy=0;" edge="1" parent="1" source="Gzjgc1qkwx82EHBpfoVX-131" target="Gzjgc1qkwx82EHBpfoVX-117">
          <mxGeometry relative="1" as="geometry" />
        </mxCell>
        <mxCell id="Gzjgc1qkwx82EHBpfoVX-131" value="目录1 [19]" style="rounded=0;whiteSpace=wrap;html=1;" vertex="1" parent="1">
          <mxGeometry x="2115" y="1410" width="80" height="30" as="geometry" />
        </mxCell>
        <mxCell id="Gzjgc1qkwx82EHBpfoVX-132" style="edgeStyle=orthogonalEdgeStyle;rounded=0;orthogonalLoop=1;jettySize=auto;html=1;exitX=1;exitY=0.5;exitDx=0;exitDy=0;entryX=0;entryY=0.5;entryDx=0;entryDy=0;" edge="1" parent="1" source="Gzjgc1qkwx82EHBpfoVX-133" target="Gzjgc1qkwx82EHBpfoVX-123">
          <mxGeometry relative="1" as="geometry" />
        </mxCell>
        <mxCell id="Gzjgc1qkwx82EHBpfoVX-133" value="目录2 [22]" style="rounded=0;whiteSpace=wrap;html=1;" vertex="1" parent="1">
          <mxGeometry x="2115" y="1460" width="80" height="30" as="geometry" />
        </mxCell>
        <mxCell id="Gzjgc1qkwx82EHBpfoVX-134" value="&lt;span style=&quot;font-size: 14px;&quot;&gt;指向后一个page&lt;/span&gt;" style="text;html=1;align=center;verticalAlign=middle;resizable=0;points=[];autosize=1;strokeColor=none;fillColor=none;" vertex="1" parent="1">
          <mxGeometry x="1870" y="1310" width="120" height="30" as="geometry" />
        </mxCell>
        <mxCell id="Gzjgc1qkwx82EHBpfoVX-137" value="" style="rounded=0;whiteSpace=wrap;html=1;" vertex="1" parent="1">
          <mxGeometry x="840" y="740" width="380" height="490" as="geometry" />
        </mxCell>
        <mxCell id="Gzjgc1qkwx82EHBpfoVX-138" value="&lt;font style=&quot;font-size: 14px;&quot;&gt;P&lt;span style=&quot;background-color: initial;&quot;&gt;age&lt;/span&gt;&lt;/font&gt;" style="text;html=1;align=center;verticalAlign=middle;resizable=0;points=[];autosize=1;strokeColor=none;fillColor=none;" vertex="1" parent="1">
          <mxGeometry x="1000" y="720" width="60" height="30" as="geometry" />
        </mxCell>
        <mxCell id="Gzjgc1qkwx82EHBpfoVX-178" style="edgeStyle=orthogonalEdgeStyle;rounded=0;orthogonalLoop=1;jettySize=auto;html=1;exitX=0;exitY=0.5;exitDx=0;exitDy=0;" edge="1" parent="1" source="Gzjgc1qkwx82EHBpfoVX-139">
          <mxGeometry relative="1" as="geometry">
            <mxPoint x="730" y="790.0000000000002" as="targetPoint" />
          </mxGeometry>
        </mxCell>
        <mxCell id="Gzjgc1qkwx82EHBpfoVX-139" value="&lt;span style=&quot;font-size: 14px;&quot;&gt;page_prev&lt;/span&gt;" style="rounded=0;whiteSpace=wrap;html=1;" vertex="1" parent="1">
          <mxGeometry x="870" y="770" width="130" height="40" as="geometry" />
        </mxCell>
        <mxCell id="Gzjgc1qkwx82EHBpfoVX-176" style="edgeStyle=orthogonalEdgeStyle;rounded=0;orthogonalLoop=1;jettySize=auto;html=1;exitX=1;exitY=0.5;exitDx=0;exitDy=0;entryX=0;entryY=0;entryDx=0;entryDy=0;" edge="1" parent="1" source="Gzjgc1qkwx82EHBpfoVX-141" target="Gzjgc1qkwx82EHBpfoVX-161">
          <mxGeometry relative="1" as="geometry" />
        </mxCell>
        <mxCell id="Gzjgc1qkwx82EHBpfoVX-141" value="&lt;span style=&quot;font-size: 14px;&quot;&gt;page_next&lt;/span&gt;" style="rounded=0;whiteSpace=wrap;html=1;" vertex="1" parent="1">
          <mxGeometry x="1060" y="770" width="130" height="40" as="geometry" />
        </mxCell>
        <mxCell id="Gzjgc1qkwx82EHBpfoVX-155" value="" style="rounded=0;whiteSpace=wrap;html=1;" vertex="1" parent="1">
          <mxGeometry x="865" y="830" width="330" height="140" as="geometry" />
        </mxCell>
        <mxCell id="Gzjgc1qkwx82EHBpfoVX-157" value="&lt;font style=&quot;font-size: 14px;&quot;&gt;目录1 [1]&lt;/font&gt;" style="rounded=0;whiteSpace=wrap;html=1;" vertex="1" parent="1">
          <mxGeometry x="880" y="840" width="20" height="110" as="geometry" />
        </mxCell>
        <mxCell id="Gzjgc1qkwx82EHBpfoVX-173" style="edgeStyle=orthogonalEdgeStyle;rounded=0;orthogonalLoop=1;jettySize=auto;html=1;exitX=0.5;exitY=1;exitDx=0;exitDy=0;" edge="1" parent="1" source="Gzjgc1qkwx82EHBpfoVX-159" target="Gzjgc1qkwx82EHBpfoVX-35">
          <mxGeometry relative="1" as="geometry" />
        </mxCell>
        <mxCell id="Gzjgc1qkwx82EHBpfoVX-159" value="&lt;font style=&quot;font-size: 14px;&quot;&gt;目录2 [7]&lt;/font&gt;" style="rounded=0;whiteSpace=wrap;html=1;" vertex="1" parent="1">
          <mxGeometry x="925" y="840" width="20" height="110" as="geometry" />
        </mxCell>
        <mxCell id="Gzjgc1qkwx82EHBpfoVX-161" value="" style="rounded=0;whiteSpace=wrap;html=1;" vertex="1" parent="1">
          <mxGeometry x="1575" y="740" width="380" height="490" as="geometry" />
        </mxCell>
        <mxCell id="Gzjgc1qkwx82EHBpfoVX-162" value="&lt;font style=&quot;font-size: 14px;&quot;&gt;P&lt;span style=&quot;background-color: initial;&quot;&gt;age&lt;/span&gt;&lt;/font&gt;" style="text;html=1;align=center;verticalAlign=middle;resizable=0;points=[];autosize=1;strokeColor=none;fillColor=none;" vertex="1" parent="1">
          <mxGeometry x="1735" y="720" width="60" height="30" as="geometry" />
        </mxCell>
        <mxCell id="Gzjgc1qkwx82EHBpfoVX-177" style="edgeStyle=orthogonalEdgeStyle;rounded=0;orthogonalLoop=1;jettySize=auto;html=1;exitX=0;exitY=0.5;exitDx=0;exitDy=0;entryX=1;entryY=0;entryDx=0;entryDy=0;" edge="1" parent="1" source="Gzjgc1qkwx82EHBpfoVX-163" target="Gzjgc1qkwx82EHBpfoVX-137">
          <mxGeometry relative="1" as="geometry">
            <Array as="points">
              <mxPoint x="1412" y="790" />
              <mxPoint x="1412" y="740" />
            </Array>
          </mxGeometry>
        </mxCell>
        <mxCell id="Gzjgc1qkwx82EHBpfoVX-163" value="&lt;span style=&quot;font-size: 14px;&quot;&gt;page_prev&lt;/span&gt;" style="rounded=0;whiteSpace=wrap;html=1;" vertex="1" parent="1">
          <mxGeometry x="1605" y="770" width="130" height="40" as="geometry" />
        </mxCell>
        <mxCell id="Gzjgc1qkwx82EHBpfoVX-179" style="edgeStyle=orthogonalEdgeStyle;rounded=0;orthogonalLoop=1;jettySize=auto;html=1;exitX=1;exitY=0.5;exitDx=0;exitDy=0;" edge="1" parent="1" source="Gzjgc1qkwx82EHBpfoVX-165">
          <mxGeometry relative="1" as="geometry">
            <mxPoint x="2079.9999999999995" y="790.0000000000002" as="targetPoint" />
          </mxGeometry>
        </mxCell>
        <mxCell id="Gzjgc1qkwx82EHBpfoVX-165" value="&lt;span style=&quot;font-size: 14px;&quot;&gt;page_next&lt;/span&gt;" style="rounded=0;whiteSpace=wrap;html=1;" vertex="1" parent="1">
          <mxGeometry x="1795" y="770" width="130" height="40" as="geometry" />
        </mxCell>
        <mxCell id="Gzjgc1qkwx82EHBpfoVX-166" value="" style="rounded=0;whiteSpace=wrap;html=1;" vertex="1" parent="1">
          <mxGeometry x="1600" y="830" width="330" height="140" as="geometry" />
        </mxCell>
        <mxCell id="Gzjgc1qkwx82EHBpfoVX-174" style="edgeStyle=orthogonalEdgeStyle;rounded=0;orthogonalLoop=1;jettySize=auto;html=1;exitX=0.5;exitY=1;exitDx=0;exitDy=0;" edge="1" parent="1" source="Gzjgc1qkwx82EHBpfoVX-167" target="Gzjgc1qkwx82EHBpfoVX-61">
          <mxGeometry relative="1" as="geometry" />
        </mxCell>
        <mxCell id="Gzjgc1qkwx82EHBpfoVX-167" value="&lt;font style=&quot;font-size: 14px;&quot;&gt;目录1 [13]&lt;/font&gt;" style="rounded=0;whiteSpace=wrap;html=1;" vertex="1" parent="1">
          <mxGeometry x="1615" y="840" width="20" height="110" as="geometry" />
        </mxCell>
        <mxCell id="Gzjgc1qkwx82EHBpfoVX-175" style="edgeStyle=orthogonalEdgeStyle;rounded=0;orthogonalLoop=1;jettySize=auto;html=1;exitX=0.5;exitY=1;exitDx=0;exitDy=0;" edge="1" parent="1" source="Gzjgc1qkwx82EHBpfoVX-168" target="Gzjgc1qkwx82EHBpfoVX-110">
          <mxGeometry relative="1" as="geometry">
            <Array as="points">
              <mxPoint x="1670" y="1100" />
              <mxPoint x="2290" y="1100" />
            </Array>
          </mxGeometry>
        </mxCell>
        <mxCell id="Gzjgc1qkwx82EHBpfoVX-168" value="&lt;font style=&quot;font-size: 14px;&quot;&gt;目录2 [19]&lt;/font&gt;" style="rounded=0;whiteSpace=wrap;html=1;" vertex="1" parent="1">
          <mxGeometry x="1660" y="840" width="20" height="110" as="geometry" />
        </mxCell>
        <mxCell id="Gzjgc1qkwx82EHBpfoVX-169" value="&lt;span style=&quot;font-size: 14px;&quot;&gt;o&lt;/span&gt;&lt;span style=&quot;background-color: initial; font-size: 14px;&quot;&gt;t&lt;/span&gt;&lt;span style=&quot;background-color: initial; font-size: 14px;&quot;&gt;h&lt;/span&gt;&lt;span style=&quot;background-color: initial; font-size: 14px;&quot;&gt;e&lt;/span&gt;&lt;span style=&quot;background-color: initial; font-size: 14px;&quot;&gt;r&lt;/span&gt;" style="rounded=0;whiteSpace=wrap;html=1;" vertex="1" parent="1">
          <mxGeometry x="970" y="840" width="20" height="110" as="geometry" />
        </mxCell>
        <mxCell id="Gzjgc1qkwx82EHBpfoVX-171" value="&lt;span style=&quot;font-size: 14px;&quot;&gt;o&lt;/span&gt;&lt;span style=&quot;background-color: initial; font-size: 14px;&quot;&gt;t&lt;/span&gt;&lt;span style=&quot;background-color: initial; font-size: 14px;&quot;&gt;h&lt;/span&gt;&lt;span style=&quot;background-color: initial; font-size: 14px;&quot;&gt;e&lt;/span&gt;&lt;span style=&quot;background-color: initial; font-size: 14px;&quot;&gt;r&lt;/span&gt;" style="rounded=0;whiteSpace=wrap;html=1;" vertex="1" parent="1">
          <mxGeometry x="1705" y="840" width="20" height="110" as="geometry" />
        </mxCell>
        <mxCell id="Gzjgc1qkwx82EHBpfoVX-172" style="edgeStyle=orthogonalEdgeStyle;rounded=0;orthogonalLoop=1;jettySize=auto;html=1;exitX=0.5;exitY=1;exitDx=0;exitDy=0;entryX=0.5;entryY=0;entryDx=0;entryDy=0;entryPerimeter=0;" edge="1" parent="1" source="Gzjgc1qkwx82EHBpfoVX-157" target="Gzjgc1qkwx82EHBpfoVX-2">
          <mxGeometry relative="1" as="geometry" />
        </mxCell>
        <mxCell id="Gzjgc1qkwx82EHBpfoVX-180" value="&lt;span style=&quot;font-size: 14px;&quot;&gt;指向后一个page&lt;/span&gt;" style="text;html=1;align=center;verticalAlign=middle;resizable=0;points=[];autosize=1;strokeColor=none;fillColor=none;" vertex="1" parent="1">
          <mxGeometry x="2480" y="1310" width="120" height="30" as="geometry" />
        </mxCell>
        <mxCell id="Gzjgc1qkwx82EHBpfoVX-181" value="" style="rounded=0;whiteSpace=wrap;html=1;" vertex="1" parent="1">
          <mxGeometry x="1210" y="220" width="380" height="490" as="geometry" />
        </mxCell>
        <mxCell id="Gzjgc1qkwx82EHBpfoVX-182" value="&lt;font style=&quot;font-size: 14px;&quot;&gt;P&lt;span style=&quot;background-color: initial;&quot;&gt;age&lt;/span&gt;&lt;/font&gt;" style="text;html=1;align=center;verticalAlign=middle;resizable=0;points=[];autosize=1;strokeColor=none;fillColor=none;" vertex="1" parent="1">
          <mxGeometry x="1370" y="200" width="60" height="30" as="geometry" />
        </mxCell>
        <mxCell id="Gzjgc1qkwx82EHBpfoVX-183" value="&lt;span style=&quot;font-size: 14px;&quot;&gt;page_prev&lt;/span&gt;" style="rounded=0;whiteSpace=wrap;html=1;" vertex="1" parent="1">
          <mxGeometry x="1240" y="250" width="130" height="40" as="geometry" />
        </mxCell>
        <mxCell id="Gzjgc1qkwx82EHBpfoVX-184" value="&lt;span style=&quot;font-size: 14px;&quot;&gt;page_next&lt;/span&gt;" style="rounded=0;whiteSpace=wrap;html=1;" vertex="1" parent="1">
          <mxGeometry x="1430" y="250" width="130" height="40" as="geometry" />
        </mxCell>
        <mxCell id="Gzjgc1qkwx82EHBpfoVX-185" value="" style="rounded=0;whiteSpace=wrap;html=1;" vertex="1" parent="1">
          <mxGeometry x="1235" y="310" width="330" height="140" as="geometry" />
        </mxCell>
        <mxCell id="Gzjgc1qkwx82EHBpfoVX-189" style="edgeStyle=orthogonalEdgeStyle;rounded=0;orthogonalLoop=1;jettySize=auto;html=1;exitX=0.5;exitY=1;exitDx=0;exitDy=0;" edge="1" parent="1" source="Gzjgc1qkwx82EHBpfoVX-186" target="Gzjgc1qkwx82EHBpfoVX-138">
          <mxGeometry relative="1" as="geometry" />
        </mxCell>
        <mxCell id="Gzjgc1qkwx82EHBpfoVX-186" value="&lt;font style=&quot;font-size: 14px;&quot;&gt;目录1 [1]&lt;/font&gt;" style="rounded=0;whiteSpace=wrap;html=1;" vertex="1" parent="1">
          <mxGeometry x="1250" y="320" width="20" height="110" as="geometry" />
        </mxCell>
        <mxCell id="Gzjgc1qkwx82EHBpfoVX-190" style="edgeStyle=orthogonalEdgeStyle;rounded=0;orthogonalLoop=1;jettySize=auto;html=1;exitX=0.5;exitY=1;exitDx=0;exitDy=0;" edge="1" parent="1" source="Gzjgc1qkwx82EHBpfoVX-187" target="Gzjgc1qkwx82EHBpfoVX-162">
          <mxGeometry relative="1" as="geometry" />
        </mxCell>
        <mxCell id="Gzjgc1qkwx82EHBpfoVX-187" value="&lt;font style=&quot;font-size: 14px;&quot;&gt;目录2 [13]&lt;/font&gt;" style="rounded=0;whiteSpace=wrap;html=1;" vertex="1" parent="1">
          <mxGeometry x="1295" y="320" width="20" height="110" as="geometry" />
        </mxCell>
        <mxCell id="Gzjgc1qkwx82EHBpfoVX-188" value="&lt;span style=&quot;font-size: 14px;&quot;&gt;o&lt;/span&gt;&lt;span style=&quot;background-color: initial; font-size: 14px;&quot;&gt;t&lt;/span&gt;&lt;span style=&quot;background-color: initial; font-size: 14px;&quot;&gt;h&lt;/span&gt;&lt;span style=&quot;background-color: initial; font-size: 14px;&quot;&gt;e&lt;/span&gt;&lt;span style=&quot;background-color: initial; font-size: 14px;&quot;&gt;r&lt;/span&gt;" style="rounded=0;whiteSpace=wrap;html=1;" vertex="1" parent="1">
          <mxGeometry x="1340" y="320" width="20" height="110" as="geometry" />
        </mxCell>
      </root>
    </mxGraphModel>
  </diagram>
</mxfile>
